<!DOCTYPE svg PUBLIC "-//W3C//DTD SVG 1.1//EN" "http://www.w3.org/Graphics/SVG/1.1/DTD/svg11.dtd">
<!-- Uploaded to: SVG Repo, www.svgrepo.com, Transformed by: SVG Repo Mixer Tools -->
<svg width="800px" height="800px" viewBox="0 0 24 24" fill="none" xmlns="http://www.w3.org/2000/svg">
<g id="SVGRepo_bgCarrier" stroke-width="0"/>
<g id="SVGRepo_tracerCarrier" stroke-linecap="round" stroke-linejoin="round"/>
<g id="SVGRepo_iconCarrier"> <path d="M7 12.5L8.5 9.5M8.5 9.5H16M8.5 9.5L10.5 16.5L16 9.5M8.5 9.5L7.5 7M16 9.5L17 12.5M16 9.5L15.5 8.5L18.5 8V9.5M9 15.5C9 17.433 7.433 19 5.5 19C3.567 19 2 17.433 2 15.5C2 13.567 3.567 12 5.5 12C7.433 12 9 13.567 9 15.5Z" stroke="#FEC93F" stroke-width="1.2" stroke-linejoin="round"/> <circle cx="18.5" cy="15.5" r="3.5" stroke="#FEC93F" stroke-width="1.2"/> <path d="M7 7H9.5" stroke="#FEC93F" stroke-linecap="round"/> </g>
</svg>