<!DOCTYPE svg PUBLIC "-//W3C//DTD SVG 1.1//EN" "http://www.w3.org/Graphics/SVG/1.1/DTD/svg11.dtd">
<!-- Uploaded to: SVG Repo, www.svgrepo.com, Transformed by: SVG Repo Mixer Tools -->
<svg version="1.1" id="_x32_" xmlns="http://www.w3.org/2000/svg" xmlns:xlink="http://www.w3.org/1999/xlink" viewBox="0 0 512 512" xml:space="preserve" width="800px" height="800px" fill="#000000">
<g id="SVGRepo_bgCarrier" stroke-width="0"/>
<g id="SVGRepo_tracerCarrier" stroke-linecap="round" stroke-linejoin="round"/>
<g id="SVGRepo_iconCarrier"> <style type="text/css"> .st0{fill:#FEC93F;} </style> <g> <path class="st0" d="M424.154,133.902H369.23l40.607-30.427L341.98,52.62l-67.856,50.855l40.607,30.427H197.27l40.607-30.427 l-67.85-50.855l-67.856,50.855l40.607,30.427H87.846C39.323,133.909,0.014,173.224,0,221.747v174.089 c-0.007,7.977,3.279,15.338,8.511,20.551c5.212,5.232,12.58,8.517,20.551,8.511h38.166c-0.047,0.649-0.196,1.264-0.196,1.92 c0,17.988,14.575,32.563,32.563,32.563c17.982,0,32.562-14.575,32.562-32.563c0-0.656-0.149-1.271-0.196-1.92h19.09 c-0.047,0.649-0.196,1.264-0.196,1.92c0,17.988,14.575,32.563,32.563,32.563c17.981,0,32.563-14.575,32.563-32.563 c0-0.656-0.149-1.271-0.196-1.92h80.437c-0.041,0.649-0.196,1.264-0.196,1.92c0,17.988,14.574,32.563,32.563,32.563 c17.981,0,32.563-14.575,32.563-32.563c0-0.656-0.156-1.271-0.196-1.92h19.09c-0.041,0.649-0.197,1.264-0.197,1.92 c0,17.988,14.575,32.563,32.563,32.563c17.982,0,32.563-14.575,32.563-32.563c0-0.656-0.155-1.271-0.196-1.92h38.16 c7.97,0.006,15.338-3.279,20.551-8.511c5.232-5.212,8.517-12.574,8.511-20.551V221.747 C511.986,173.224,472.677,133.909,424.154,133.902z M313.041,103.475l28.939-21.7l28.947,21.7l-28.947,21.693L313.041,103.475z M141.081,103.475l28.946-21.7l28.94,21.7l-28.94,21.693L141.081,103.475z M479.592,392.497H32.408v-170.75 c0-15.358,6.172-29.122,16.238-39.201c10.079-10.066,23.842-16.238,39.201-16.244h336.308c15.359,0.007,29.115,6.179,39.201,16.244 c10.059,10.079,16.231,23.843,16.238,39.201V392.497z"/> <rect x="98.027" y="240.189" class="st0" width="58.324" height="116.656"/> <rect x="217.921" y="240.189" class="st0" width="68.052" height="58.331"/> <rect x="345.921" y="240.189" class="st0" width="68.052" height="58.331"/> </g> </g>
</svg>