<!DOCTYPE svg PUBLIC "-//W3C//DTD SVG 1.1//EN" "http://www.w3.org/Graphics/SVG/1.1/DTD/svg11.dtd">
<!-- Uploaded to: SVG Repo, www.svgrepo.com, Transformed by: SVG Repo Mixer Tools -->
<svg width="800px" height="800px" viewBox="0 0 24 24" fill="none" xmlns="http://www.w3.org/2000/svg">
<g id="SVGRepo_bgCarrier" stroke-width="0"/>
<g id="SVGRepo_tracerCarrier" stroke-linecap="round" stroke-linejoin="round"/>
<g id="SVGRepo_iconCarrier"> <path d="M15 2C15 1.44772 15.4477 1 16 1H22C22.1475 1 22.2875 1.03192 22.4135 1.08924C22.502 1.12939 22.5858 1.1831 22.6619 1.25035C22.6917 1.27672 22.72 1.30485 22.7465 1.33457C22.8195 1.41631 22.8767 1.50717 22.9182 1.6032C22.97 1.72303 22.9991 1.85501 23 1.99368C23 1.99578 23 1.99789 23 2V8C23 8.55229 22.5523 9 22 9C21.4477 9 21 8.55229 21 8V4.41424L15.636 9.7782C15.2455 10.1687 14.6123 10.1687 14.2218 9.7782C13.8313 9.38768 13.8313 8.75451 14.2218 8.36399L19.5858 3H16C15.4477 3 15 2.55228 15 2Z" fill="#FEC93F"/> <path fill-rule="evenodd" clip-rule="evenodd" d="M2.01192 5.6023C1.83312 3.50023 3.61574 2 5.51161 2H7.88594C9.01915 2 10.0411 2.68182 10.4762 3.72819L11.6459 6.54152C12.0464 7.50457 11.8795 8.61027 11.2126 9.41219L9.96021 10.9182C10.7683 12.1458 11.7862 13.2527 12.9455 14.169L14.5827 12.8019C15.386 12.1311 16.4959 11.9632 17.4616 12.3664L20.2638 13.5364C21.3081 13.9725 21.9881 14.9933 21.9881 16.125C21.9881 16.5154 21.9911 16.906 21.9941 17.3009L21.9941 17.3025C21.997 17.6955 22 18.0931 22 18.4913C22 20.387 20.4999 22.1699 18.3975 21.9904C9.85772 21.2613 2.74005 14.1628 2.01192 5.6023ZM5.51161 4C4.56806 4 3.94287 4.70566 4.00472 5.43279C4.65016 13.0211 10.9966 19.3513 18.5676 19.9977C19.2944 20.0597 20 19.4349 20 18.4913C20 18.1013 19.9971 17.7109 19.9941 17.316L19.9941 17.3135C19.9911 16.9209 19.9881 16.5231 19.9881 16.125C19.9881 15.8002 19.7929 15.5072 19.4932 15.382L16.691 14.212C16.4138 14.0963 16.0952 14.1444 15.8646 14.337L13.0326 16.7019L12.4051 16.2603C10.5707 14.9694 8.9987 13.2704 7.86741 11.3384L7.51296 10.733L9.67483 8.13339C9.86626 7.90321 9.91417 7.58583 9.79923 7.30939L8.62943 4.49606C8.50455 4.19571 8.21122 4 7.88594 4H5.51161Z" fill="#FEC93F"/> </g>
</svg>