<!DOCTYPE svg PUBLIC "-//W3C//DTD SVG 1.1//EN" "http://www.w3.org/Graphics/SVG/1.1/DTD/svg11.dtd">
<!-- Uploaded to: SVG Repo, www.svgrepo.com, Transformed by: SVG Repo Mixer Tools -->
<svg version="1.1" id="Layer_1" xmlns="http://www.w3.org/2000/svg" xmlns:xlink="http://www.w3.org/1999/xlink" viewBox="0 0 512 512" xml:space="preserve" width="800px" height="800px" fill="#000000" stroke="#000000" stroke-width="3.072">
<g id="SVGRepo_bgCarrier" stroke-width="0"/>
<g id="SVGRepo_tracerCarrier" stroke-linecap="round" stroke-linejoin="round"/>
<g id="SVGRepo_iconCarrier"> <rect x="247.83" y="55.285" style="fill:#B7A485;" width="16.34" height="43.574"/> <polygon style="fill:#9B8060;" points="256,77.072 106.213,207.796 73.532,279.149 394.894,279.149 373.106,179.276 "/> <polygon style="fill:#B7A485;" points="405.787,207.796 438.468,279.149 373.106,279.149 373.106,179.276 "/> <path style="fill:#FEC93F;" d="M256,137.532v98.043c27.071,0,49.021-21.951,49.021-49.021S283.071,137.532,256,137.532z"/> <polygon style="fill:#9B8060;" points="438.468,268.255 405.787,508.46 373.106,508.46 329.532,388.357 373.106,268.255 "/> <polygon style="fill:#B7A485;" points="73.532,268.255 106.213,508.46 171.574,508.46 256,475.779 340.426,508.46 373.106,508.46 373.106,268.255 "/> <path style="fill:#9B8060;" d="M340.426,407.694V508.46h-32.681l-84.426-100.766L256,323.268 C302.548,323.268,340.426,361.145,340.426,407.694z"/> <path style="fill:#9B8060;" d="M171.574,407.694V508.46h32.681L256,407.694v-84.426 C209.452,323.268,171.574,361.145,171.574,407.694z"/> <path style="fill:#FF6638;" d="M307.745,407.694V508.46H256v-1.089l-32.681-75.166L256,355.949 C284.53,355.949,307.745,379.163,307.745,407.694z"/> <path style="fill:#FF883E;" d="M256,507.37v1.089h-51.745V407.694c0-28.53,23.214-51.745,51.745-51.745V507.37z"/> <path style="fill:#FEA212;" d="M256,137.532c9.02,0,16.34,21.951,16.34,49.021s-7.321,49.021-16.34,49.021 c-27.071,0-49.021-21.951-49.021-49.021S228.929,137.532,256,137.532z"/> <polygon style="fill:#FEC93F;" points="503.427,142.434 454.809,175.115 454.809,12.8 "/> <polygon style="fill:#FEA212;" points="471.018,142.434 438.61,164.221 406.201,142.434 454.809,12.8 "/> <polygon style="fill:#FEC93F;" points="105.81,142.434 57.191,175.115 57.191,12.8 "/> <polygon style="fill:#FEA212;" points="73.401,142.434 40.993,164.221 8.584,142.434 57.191,12.8 "/> <polygon style="fill:#B7A485;" points="503.83,143.523 503.83,268.255 449.362,300.936 471.149,143.523 471.018,142.434 503.427,142.434 "/> <polygon style="fill:#9B8060;" points="471.018,142.434 406.201,142.434 405.787,143.523 405.787,268.255 460.255,268.255 471.149,191.455 471.149,143.523 "/> <polygon style="fill:#B7A485;" points="105.81,142.434 73.401,142.434 73.532,143.523 51.745,300.936 106.213,268.255 106.213,143.523 "/> <polygon style="fill:#9B8060;" points="73.532,143.523 73.532,191.455 62.638,268.255 8.17,268.255 8.17,143.523 8.584,142.434 73.401,142.434 "/> <polygon style="fill:#826249;" points="503.83,268.255 503.83,508.46 471.149,508.46 438.468,388.357 471.149,268.255 "/> <polygon style="fill:#B7A485;" points="471.149,268.255 471.149,311.285 460.255,349.685 471.149,388.085 471.149,508.46 405.787,508.46 405.787,268.255 "/> <polygon style="fill:#826249;" points="106.213,268.255 106.213,508.46 73.532,508.46 40.851,388.357 73.532,268.255 "/> <polygon style="fill:#B7A485;" points="73.532,268.255 73.532,311.285 62.638,349.685 73.532,388.085 73.532,508.46 8.17,508.46 8.17,268.255 "/> <g> <path style="fill:#FEA212;" d="M57.191,175.115c-9.024,0-16.34,7.316-16.34,16.34v76.8h32.681v-76.8 C73.532,182.431,66.216,175.115,57.191,175.115z"/> <path style="fill:#FEA212;" d="M454.809,175.115c-9.024,0-16.34,7.316-16.34,16.34v76.8h32.681v-76.8 C471.149,182.431,463.833,175.115,454.809,175.115z"/> </g> <path style="fill:#B7A485;" d="M256,63.455c-16.518,0-29.957-13.438-29.957-29.957S239.482,3.54,256,3.54 s29.957,13.438,29.957,29.957S272.518,63.455,256,63.455z M256,19.881c-7.509,0-13.617,6.108-13.617,13.617 S248.491,47.115,256,47.115c7.509,0,13.617-6.108,13.617-13.617S263.509,19.881,256,19.881z"/> <path style="fill:#826249;" d="M503.83,276.426H8.17c-4.513,0-8.17-3.658-8.17-8.17s3.657-8.17,8.17-8.17h495.66 c4.513,0,8.17,3.658,8.17,8.17S508.343,276.426,503.83,276.426z"/> <g> <path style="fill:#FEA212;" d="M57.191,294.945c-9.024,0-16.34,7.316-16.34,16.34v76.8h32.681v-76.8 C73.532,302.261,66.216,294.945,57.191,294.945z"/> <path style="fill:#FEA212;" d="M454.809,294.945c-9.024,0-16.34,7.316-16.34,16.34v76.8h32.681v-76.8 C471.149,302.261,463.833,294.945,454.809,294.945z"/> </g> </g>
</svg>